<svg data-v-6805eed4="" version="1.0" xmlns="http://www.w3.org/2000/svg" xmlns:xlink="http://www.w3.org/1999/xlink" width="100%" height="100%" viewBox="0 0 340.000000 250.000000" preserveAspectRatio="xMidYMid meet" color-interpolation-filters="sRGB" style="margin: auto;"> <rect data-v-6805eed4="" x="0" y="0" width="100%" height="100%" fill="url(#watermark)" fill-opacity="1" class="watermarklayer"></rect> <g data-v-6805eed4="" class="iconmbgsvg" transform="translate(86.99292039871216,60.04618835449219)"><g fill="#000000" hollow-target="textNormalTran"><g opacity="0.55" transform="translate(26.76000213623047,0)"><g><rect fill="#000000" fill-opacity="0" stroke-width="2" x="0" y="0" width="112.5" height="129.90762124711318" class="image-rect"></rect> <svg x="0" y="0" width="112.5" height="129.90762124711318" filtersec="colorsb9687138371" class="image-svg-svg primary" style="overflow: visible;"><svg version="1.1" id="图层_1" xmlns="http://www.w3.org/2000/svg" xmlns:xlink="http://www.w3.org/1999/xlink" x="0px" y="0px" viewBox="1.789999008178711 0.7300000190734863 96.36000061035156 111.2699966430664" enable-background="new 0 0 100 112" xml:space="preserve">
<g>
	<path fill="#036EB7" d="M31.44,45.67l18.52,10.7l18.53-10.7L49.96,34.97L31.44,45.67z M49.97,0.73L1.79,28.55l15.42,8.9
		l32.76-18.91l32.76,18.91l15.42-8.9L49.97,0.73z"></path>
    <path fill="#2CA6E0" d="M31.44,101.3L49.97,112V94.2L31.44,83.5V101.3z M1.79,84.18l15.42,8.9V37.45h0l-15.42-8.9V84.18z
		 M49.96,56.37l-18.52-10.7v21.39l18.52,10.7l0,0L49.96,56.37L49.96,56.37z"></path>
    <path fill="#171C61" d="M82.73,37.45L82.73,37.45l0,37.83l0,0L49.97,94.2V112l48.18-27.82V28.55L82.73,37.45z M68.49,45.67
		l-18.53,10.7v21.39l18.53-10.7V45.67z"></path>
</g>
</svg></svg> <!----></g></g> <g transform="translate(0,33.53418731689453)"><g data-gra="path-name" fill-rule="" class="tp-name" transform="translate(0,0)"><g transform="scale(1)"><g><path d="M49.45-41.35L49.45 0 41.2 0 41.2-11.17 12.19-11.17 12.19 0 3.94 0 3.94-22.76Q3.94-27.74 5.65-31.93 7.36-36.12 10.41-39.13 13.46-42.15 17.61-43.83 21.77-45.51 26.69-45.51L26.69-45.51 45.29-45.51Q46.15-45.51 46.91-45.2 47.67-44.88 48.24-44.31 48.81-43.74 49.13-42.97 49.45-42.21 49.45-41.35L49.45-41.35ZM12.19-22.76L12.19-19.42 41.2-19.42 41.2-37.26 26.69-37.26Q26.31-37.26 25.09-37.15 23.87-37.04 22.26-36.59 20.66-36.15 18.88-35.23 17.11-34.31 15.62-32.69 14.12-31.07 13.16-28.64 12.19-26.22 12.19-22.76L12.19-22.76ZM102.77-13.39L102.77-13.39Q102.77-10.95 102.15-9 101.53-7.05 100.52-5.55 99.5-4.06 98.13-3.02 96.77-1.97 95.31-1.3 93.85-0.63 92.34-0.32 90.83 0 89.5 0L89.5 0 57.67 0 57.67-8.25 89.5-8.25Q91.88-8.25 93.2-9.65 94.52-11.04 94.52-13.39L94.52-13.39Q94.52-14.54 94.17-15.49 93.82-16.44 93.17-17.14 92.52-17.84 91.58-18.22 90.64-18.6 89.5-18.6L89.5-18.6 70.52-18.6Q68.52-18.6 66.21-19.31 63.89-20.03 61.91-21.61 59.92-23.2 58.6-25.77 57.29-28.34 57.29-32.06L57.29-32.06Q57.29-35.77 58.6-38.32 59.92-40.88 61.91-42.48 63.89-44.08 66.21-44.8 68.52-45.51 70.52-45.51L70.52-45.51 98.61-45.51 98.61-37.26 70.52-37.26Q68.17-37.26 66.86-35.83 65.54-34.4 65.54-32.06L65.54-32.06Q65.54-29.68 66.86-28.29 68.17-26.91 70.52-26.91L70.52-26.91 89.5-26.91 89.57-26.91Q90.9-26.88 92.39-26.55 93.88-26.22 95.36-25.52 96.83-24.82 98.17-23.76 99.5-22.69 100.53-21.2 101.56-19.71 102.17-17.77 102.77-15.84 102.77-13.39ZM133.94-22.76L157.33 0 145.62 0 127.05-18.6 121.24-18.6 121.24-26.91 127.05-26.91 145.62-45.51 157.33-45.51 133.94-22.76ZM117.94-45.51L117.94 0 109.69 0 109.69-45.51 117.94-45.51ZM169.96-48.81L169.96-41.35 161.71-41.35 161.71-48.81 169.96-48.81ZM169.96-34.31L169.96 0 161.71 0 161.71-34.31 169.96-34.31Z" transform="translate(-3.940000057220459, 48.810001373291016)"></path></g> <!----> <!----> <!----> <!----> <!----> <!----> <!----></g></g> <g data-gra="path-slogan" fill-rule="" class="tp-slogan" fill="#000000" transform="translate(-1.2350006103515625,54.810001373291016)"><!----> <!----> <g transform="scale(1, 1)"><g transform="scale(1)"><path d="M1.06-7.75L1.06 0L5.65 0L5.65-0.84L2.04-0.84L2.04-3.65L4.98-3.65L4.98-4.49L2.04-4.49L2.04-6.92L5.53-6.92L5.53-7.75ZM6.92-7.75L6.92 0L7.83 0L7.83-4.26C7.83-4.61 7.81-4.99 7.78-5.41C7.75-5.83 7.72-6.21 7.70-6.55L7.74-6.55L8.36-4.83L9.86-0.78L10.41-0.78L11.90-4.83L12.53-6.55L12.57-6.55C12.54-6.21 12.51-5.83 12.48-5.41C12.46-4.99 12.44-4.61 12.44-4.26L12.44 0L13.38 0L13.38-7.75L12.22-7.75L10.73-3.59L10.19-2.01L10.14-2.01L9.57-3.59L8.07-7.75ZM15.13-7.75L15.13 0L16.11 0L16.11-3.07L17.51-3.07C17.93-3.07 18.32-3.12 18.67-3.22C19.02-3.32 19.32-3.46 19.57-3.66C19.82-3.86 20.02-4.11 20.16-4.41C20.29-4.70 20.36-5.06 20.36-5.47C20.36-5.89 20.29-6.25 20.16-6.54C20.02-6.83 19.83-7.07 19.58-7.25C19.33-7.42 19.03-7.55 18.67-7.63C18.32-7.71 17.93-7.75 17.51-7.75ZM17.39-3.87L16.11-3.87L16.11-6.96L17.39-6.96C18.06-6.96 18.56-6.85 18.89-6.63C19.22-6.41 19.38-6.03 19.38-5.47C19.38-4.92 19.22-4.51 18.89-4.26C18.57-4.00 18.06-3.87 17.39-3.87ZM24.42 0.14C24.91 0.14 25.36 0.05 25.76-0.14C26.17-0.33 26.52-0.60 26.81-0.95C27.11-1.30 27.34-1.73 27.50-2.23C27.66-2.73 27.74-3.29 27.74-3.91C27.74-4.52 27.66-5.08 27.50-5.57C27.34-6.06 27.11-6.48 26.81-6.82C26.52-7.16 26.17-7.43 25.76-7.61C25.36-7.80 24.91-7.89 24.42-7.89C23.93-7.89 23.49-7.80 23.08-7.62C22.68-7.44 22.33-7.17 22.04-6.83C21.74-6.49 21.52-6.07 21.36-5.58C21.20-5.09 21.11-4.53 21.11-3.91C21.11-3.29 21.20-2.73 21.36-2.23C21.52-1.73 21.74-1.30 22.04-0.95C22.33-0.60 22.68-0.33 23.08-0.14C23.49 0.05 23.93 0.14 24.42 0.14ZM24.42-0.72C24.08-0.72 23.76-0.80 23.48-0.94C23.20-1.09 22.96-1.31 22.76-1.59C22.56-1.87 22.41-2.20 22.30-2.59C22.19-2.98 22.13-3.42 22.13-3.91C22.13-4.39 22.19-4.82 22.30-5.21C22.41-5.59 22.56-5.92 22.76-6.19C22.96-6.46 23.20-6.66 23.48-6.81C23.76-6.95 24.08-7.03 24.42-7.03C24.77-7.03 25.08-6.95 25.36-6.81C25.64-6.66 25.88-6.46 26.08-6.19C26.28-5.92 26.44-5.59 26.55-5.21C26.66-4.82 26.71-4.39 26.71-3.91C26.71-3.42 26.66-2.98 26.55-2.59C26.44-2.20 26.28-1.87 26.08-1.59C25.88-1.31 25.64-1.09 25.36-0.94C25.08-0.80 24.77-0.72 24.42-0.72ZM28.17-7.75L29.81 0L30.98 0L32.13-4.67C32.19-4.96 32.26-5.26 32.32-5.54C32.39-5.83 32.46-6.13 32.52-6.42L32.57-6.42C32.63-6.13 32.69-5.83 32.75-5.54C32.81-5.26 32.87-4.96 32.94-4.67L34.11 0L35.29 0L36.90-7.75L35.96-7.75L35.14-3.53C35.06-3.11 34.99-2.70 34.92-2.29C34.85-1.87 34.77-1.45 34.70-1.03L34.66-1.03C34.56-1.45 34.47-1.87 34.37-2.29C34.28-2.71 34.18-3.12 34.09-3.53L33.01-7.75L32.12-7.75L31.04-3.53C30.96-3.11 30.87-2.70 30.77-2.29C30.68-1.87 30.59-1.45 30.50-1.03L30.45-1.03C30.38-1.45 30.31-1.87 30.23-2.28C30.15-2.69 30.07-3.11 30.00-3.53L29.19-7.75ZM37.88-7.75L37.88 0L42.46 0L42.46-0.84L38.86-0.84L38.86-3.65L41.80-3.65L41.80-4.49L38.86-4.49L38.86-6.92L42.34-6.92L42.34-7.75ZM44.71-4.07L44.71-6.96L46.01-6.96C46.61-6.96 47.08-6.85 47.40-6.65C47.72-6.44 47.89-6.09 47.89-5.57C47.89-5.07 47.72-4.69 47.40-4.45C47.08-4.20 46.61-4.07 46.01-4.07ZM47.98 0L49.09 0L47.13-3.38C47.66-3.51 48.08-3.76 48.39-4.12C48.71-4.48 48.87-4.97 48.87-5.57C48.87-5.98 48.80-6.31 48.67-6.59C48.53-6.87 48.34-7.09 48.10-7.26C47.86-7.44 47.58-7.56 47.24-7.64C46.91-7.71 46.54-7.75 46.15-7.75L43.73-7.75L43.73 0L44.71 0L44.71-3.27L46.11-3.27ZM50.22-7.75L50.22 0L51.20 0L51.20-7.75ZM52.96-7.75L52.96 0L53.89 0L53.89-4.05C53.89-4.46 53.87-4.87 53.85-5.27C53.82-5.68 53.79-6.08 53.76-6.47L53.81-6.47L54.64-4.88L57.46 0L58.47 0L58.47-7.75L57.54-7.75L57.54-3.74C57.54-3.33 57.55-2.92 57.58-2.50C57.61-2.08 57.63-1.67 57.66-1.28L57.61-1.28L56.77-2.88L53.97-7.75ZM59.78-3.87C59.78-3.24 59.86-2.68 60.04-2.18C60.21-1.68 60.45-1.26 60.76-0.92C61.06-0.57 61.43-0.31 61.86-0.13C62.28 0.05 62.75 0.14 63.26 0.14C63.78 0.14 64.25 0.06 64.66-0.11C65.07-0.28 65.41-0.50 65.66-0.76L65.66-4.02L63.12-4.02L63.12-3.20L64.76-3.20L64.76-1.18C64.60-1.04 64.40-0.93 64.15-0.84C63.90-0.76 63.64-0.72 63.37-0.72C62.95-0.72 62.58-0.80 62.26-0.94C61.94-1.09 61.68-1.31 61.46-1.58C61.24-1.86 61.08-2.19 60.96-2.58C60.85-2.97 60.79-3.41 60.79-3.90C60.79-4.38 60.85-4.81 60.98-5.20C61.10-5.58 61.27-5.91 61.49-6.18C61.71-6.45 61.98-6.66 62.29-6.81C62.61-6.95 62.96-7.03 63.36-7.03C63.75-7.03 64.07-6.96 64.33-6.82C64.59-6.68 64.81-6.51 65.01-6.31L65.56-6.93C65.34-7.17 65.04-7.39 64.68-7.59C64.33-7.79 63.88-7.89 63.34-7.89C62.82-7.89 62.35-7.80 61.91-7.61C61.48-7.43 61.11-7.16 60.79-6.81C60.47-6.47 60.22-6.05 60.04-5.55C59.87-5.05 59.78-4.50 59.78-3.87ZM69.16-7.75L69.16 0L73.53 0L73.53-0.84L70.14-0.84L70.14-7.75ZM74.53-7.75L74.53 0L79.11 0L79.11-0.84L75.51-0.84L75.51-3.65L78.45-3.65L78.45-4.49L75.51-4.49L75.51-6.92L78.99-6.92L78.99-7.75ZM83.67-3.15L81.35-3.15L81.71-4.33C81.86-4.77 81.99-5.20 82.12-5.63C82.24-6.06 82.36-6.50 82.48-6.94L82.53-6.94C82.65-6.50 82.78-6.06 82.91-5.63C83.03-5.20 83.17-4.77 83.31-4.33ZM83.92-2.36L84.65 0L85.71 0L83.08-7.75L81.97-7.75L79.35 0L80.36 0L81.10-2.36ZM87.41-4.07L87.41-6.96L88.71-6.96C89.32-6.96 89.78-6.85 90.11-6.65C90.43-6.44 90.59-6.09 90.59-5.57C90.59-5.07 90.43-4.69 90.11-4.45C89.78-4.20 89.32-4.07 88.71-4.07ZM90.68 0L91.80 0L89.83-3.38C90.36-3.51 90.78-3.76 91.10-4.12C91.41-4.48 91.57-4.97 91.57-5.57C91.57-5.98 91.50-6.31 91.37-6.59C91.24-6.87 91.05-7.09 90.81-7.26C90.57-7.44 90.28-7.56 89.95-7.64C89.61-7.71 89.25-7.75 88.85-7.75L86.43-7.75L86.43 0L87.41 0L87.41-3.27L88.82-3.27ZM92.92-7.75L92.92 0L93.86 0L93.86-4.05C93.86-4.46 93.84-4.87 93.82-5.27C93.79-5.68 93.76-6.08 93.73-6.47L93.77-6.47L94.61-4.88L97.42 0L98.44 0L98.44-7.75L97.51-7.75L97.51-3.74C97.51-3.33 97.52-2.92 97.55-2.50C97.58-2.08 97.60-1.67 97.62-1.28L97.58-1.28L96.74-2.88L93.94-7.75ZM100.19-7.75L100.19 0L101.17 0L101.17-7.75ZM102.93-7.75L102.93 0L103.86 0L103.86-4.05C103.86-4.46 103.85-4.87 103.82-5.27C103.79-5.68 103.76-6.08 103.73-6.47L103.78-6.47L104.62-4.88L107.43 0L108.45 0L108.45-7.75L107.51-7.75L107.51-3.74C107.51-3.33 107.53-2.92 107.55-2.50C107.58-2.08 107.61-1.67 107.63-1.28L107.58-1.28L106.74-2.88L103.95-7.75ZM109.75-3.87C109.75-3.24 109.84-2.68 110.01-2.18C110.18-1.68 110.42-1.26 110.73-0.92C111.04-0.57 111.41-0.31 111.83-0.13C112.26 0.05 112.72 0.14 113.24 0.14C113.76 0.14 114.22 0.06 114.64-0.11C115.05-0.28 115.38-0.50 115.63-0.76L115.63-4.02L113.09-4.02L113.09-3.20L114.74-3.20L114.74-1.18C114.58-1.04 114.38-0.93 114.13-0.84C113.88-0.76 113.62-0.72 113.34-0.72C112.92-0.72 112.56-0.80 112.24-0.94C111.92-1.09 111.65-1.31 111.43-1.58C111.22-1.86 111.05-2.19 110.94-2.58C110.82-2.97 110.77-3.41 110.77-3.90C110.77-4.38 110.83-4.81 110.95-5.20C111.07-5.58 111.24-5.91 111.46-6.18C111.68-6.45 111.95-6.66 112.27-6.81C112.58-6.95 112.94-7.03 113.33-7.03C113.72-7.03 114.05-6.96 114.30-6.82C114.56-6.68 114.79-6.51 114.98-6.31L115.54-6.93C115.31-7.17 115.02-7.39 114.66-7.59C114.30-7.79 113.85-7.89 113.32-7.89C112.80-7.89 112.32-7.80 111.89-7.61C111.46-7.43 111.08-7.16 110.76-6.81C110.44-6.47 110.19-6.05 110.02-5.55C109.84-5.05 109.75-4.50 109.75-3.87ZM120.74-6.92L120.74 0L121.73 0L121.73-6.92L124.07-6.92L124.07-7.75L118.40-7.75L118.40-6.92ZM127.67 0.14C128.15 0.14 128.60 0.05 129.01-0.14C129.41-0.33 129.76-0.60 130.06-0.95C130.35-1.30 130.58-1.73 130.74-2.23C130.90-2.73 130.98-3.29 130.98-3.91C130.98-4.52 130.90-5.08 130.74-5.57C130.58-6.06 130.35-6.48 130.06-6.82C129.76-7.16 129.41-7.43 129.01-7.61C128.60-7.80 128.15-7.89 127.67-7.89C127.18-7.89 126.73-7.80 126.33-7.62C125.92-7.44 125.57-7.17 125.28-6.83C124.99-6.49 124.76-6.07 124.60-5.58C124.44-5.09 124.36-4.53 124.36-3.91C124.36-3.29 124.44-2.73 124.60-2.23C124.76-1.73 124.99-1.30 125.28-0.95C125.57-0.60 125.92-0.33 126.33-0.14C126.73 0.05 127.18 0.14 127.67 0.14ZM127.67-0.72C127.32-0.72 127.01-0.80 126.73-0.94C126.45-1.09 126.21-1.31 126.01-1.59C125.81-1.87 125.65-2.20 125.54-2.59C125.43-2.98 125.37-3.42 125.37-3.91C125.37-4.39 125.43-4.82 125.54-5.21C125.65-5.59 125.81-5.92 126.01-6.19C126.21-6.46 126.45-6.66 126.73-6.81C127.01-6.95 127.32-7.03 127.67-7.03C128.01-7.03 128.33-6.95 128.60-6.81C128.88-6.66 129.12-6.46 129.32-6.19C129.53-5.92 129.68-5.59 129.79-5.21C129.90-4.82 129.96-4.39 129.96-3.91C129.96-3.42 129.90-2.98 129.79-2.59C129.68-2.20 129.53-1.87 129.32-1.59C129.12-1.31 128.88-1.09 128.60-0.94C128.33-0.80 128.01-0.72 127.67-0.72ZM131.83-3.87C131.83-3.24 131.92-2.68 132.09-2.18C132.26-1.68 132.50-1.26 132.81-0.92C133.12-0.57 133.48-0.31 133.91-0.13C134.33 0.05 134.80 0.14 135.31 0.14C135.83 0.14 136.30 0.06 136.71-0.11C137.13-0.28 137.46-0.50 137.71-0.76L137.71-4.02L135.17-4.02L135.17-3.20L136.81-3.20L136.81-1.18C136.66-1.04 136.45-0.93 136.21-0.84C135.96-0.76 135.70-0.72 135.42-0.72C135.00-0.72 134.63-0.80 134.32-0.94C134.00-1.09 133.73-1.31 133.51-1.58C133.30-1.86 133.13-2.19 133.02-2.58C132.90-2.97 132.85-3.41 132.85-3.90C132.85-4.38 132.91-4.81 133.03-5.20C133.15-5.58 133.32-5.91 133.54-6.18C133.76-6.45 134.03-6.66 134.35-6.81C134.66-6.95 135.01-7.03 135.41-7.03C135.80-7.03 136.13-6.96 136.38-6.82C136.64-6.68 136.87-6.51 137.06-6.31L137.62-6.93C137.39-7.17 137.10-7.39 136.74-7.59C136.38-7.79 135.93-7.89 135.40-7.89C134.88-7.89 134.40-7.80 133.97-7.61C133.53-7.43 133.16-7.16 132.84-6.81C132.52-6.47 132.27-6.05 132.10-5.55C131.92-5.05 131.83-4.50 131.83-3.87ZM139.19-7.75L139.19 0L143.78 0L143.78-0.84L140.18-0.84L140.18-3.65L143.12-3.65L143.12-4.49L140.18-4.49L140.18-6.92L143.66-6.92L143.66-7.75ZM146.65-6.92L146.65 0L147.65 0L147.65-6.92L149.98-6.92L149.98-7.75L144.32-7.75L144.32-6.92ZM151.01-7.75L151.01 0L151.99 0L151.99-3.65L155.59-3.65L155.59 0L156.58 0L156.58-7.75L155.59-7.75L155.59-4.50L151.99-4.50L151.99-7.75ZM158.34-7.75L158.34 0L162.92 0L162.92-0.84L159.32-0.84L159.32-3.65L162.26-3.65L162.26-4.49L159.32-4.49L159.32-6.92L162.80-6.92L162.80-7.75ZM165.17-4.07L165.17-6.96L166.47-6.96C167.08-6.96 167.54-6.85 167.86-6.65C168.19-6.44 168.35-6.09 168.35-5.57C168.35-5.07 168.19-4.69 167.86-4.45C167.54-4.20 167.08-4.07 166.47-4.07ZM168.44 0L169.55 0L167.59-3.38C168.12-3.51 168.54-3.76 168.86-4.12C169.17-4.48 169.33-4.97 169.33-5.57C169.33-5.98 169.26-6.31 169.13-6.59C168.99-6.87 168.81-7.09 168.57-7.26C168.33-7.44 168.04-7.56 167.70-7.64C167.37-7.71 167.01-7.75 166.61-7.75L164.19-7.75L164.19 0L165.17 0L165.17-3.27L166.58-3.27Z" transform="translate(-1.0629223804212322, 7.889246112459813)"></path></g></g></g></g></g></g><defs v-gra="od"></defs></svg>